ISO-10303-21;
HEADER;

/* File generated by HOOPS Exchange Version 24.2.0 */

FILE_DESCRIPTION(('HOOPS Exchange Step'),'2;1');

FILE_NAME('E:\\BambuLab\\ArmPi_mini\\MiniCameraMount.stp',
'2025-11-20T07:21:11-08:00',
('DELL'),
('Unknown organisation'),
'HOOPS Exchange 2024.2',
'HOOPS Exchange',
'Unknown authorisation');

FILE_SCHEMA( ('AP203_CONFIGURATION_CONTROLLED_3D_DESIGN_OF_MECHANICAL_PARTS_AND_ASSEMBLIES_MIM_LF') );

ENDSEC;

DATA;
#3=(NAMED_UNIT(*)PLANE_ANGLE_UNIT()SI_UNIT($,.RADIAN.));
#4=PLANE_ANGLE_MEASURE_WITH_UNIT(PLANE_ANGLE_MEASURE(0.0174532925),#3);
#5=(CONVERSION_BASED_UNIT('DEGREE',#4)NAMED_UNIT(#6)PLANE_ANGLE_UNIT());
#6=DIMENSIONAL_EXPONENTS(0.,0.,0.,0.,0.,0.,0.);
#7=(NAMED_UNIT(*)SI_UNIT($,.STERADIAN.)SOLID_ANGLE_UNIT());
#8=(LENGTH_UNIT()NAMED_UNIT(*)SI_UNIT(.MILLI.,.METRE.));
#9=UNCERTAINTY_MEASURE_WITH_UNIT(LENGTH_MEASURE(1.000000E-05),#8,'DISTANCE_ACCURACY_VALUE','Maximum Tolerance applied to model');
#10=(GEOMETRIC_REPRESENTATION_CONTEXT(3)GLOBAL_UNCERTAINTY_ASSIGNED_CONTEXT((#9))GLOBAL_UNIT_ASSIGNED_CONTEXT((#8,#5,#7))REPRESENTATION_CONTEXT('','root'));
#12=CARTESIAN_POINT('',(0.,0.,0.));
#13=DIRECTION('',(0.,0.,1.));
#14=DIRECTION('',(1.,0.,0.));
#15=AXIS2_PLACEMENT_3D('',#12,#13,#14);
#27=CARTESIAN_POINT('',(-15.5,-19.,-1.));
#28=DIRECTION('',(1.,0.,0.));
#29=DIRECTION('',(0.,-1.,-0.));
#30=AXIS2_PLACEMENT_3D('',#27,#28,#29);
#31=PLANE('',#30);
#32=CARTESIAN_POINT('',(-15.5,17.967312426,-1.));
#33=VERTEX_POINT('',#32);
#34=CARTESIAN_POINT('',(-15.5,18.,-1.));
#35=VERTEX_POINT('',#34);
#36=CARTESIAN_POINT('',(-15.5,17.967312426,-1.));
#37=DIRECTION('',(0.,1.,0.));
#38=VECTOR('',#37,0.032687574);
#39=LINE('',#36,#38);
#40=EDGE_CURVE('',#33,#35,#39,.T.);
#41=ORIENTED_EDGE('',*,*,#40,.F.);
#42=CARTESIAN_POINT('',(-15.5,17.967312426,1.));
#43=VERTEX_POINT('',#42);
#44=CARTESIAN_POINT('',(-15.5,17.967312426,-1.));
#45=DIRECTION('',(0.,-0.,1.));
#46=VECTOR('',#45,2.);
#47=LINE('',#44,#46);
#48=EDGE_CURVE('',#33,#43,#47,.T.);
#49=ORIENTED_EDGE('',*,*,#48,.T.);
#50=CARTESIAN_POINT('',(-15.5,18.,1.));
#51=VERTEX_POINT('',#50);
#52=CARTESIAN_POINT('',(-15.5,17.967312426,1.));
#53=DIRECTION('',(0.,1.,0.));
#54=VECTOR('',#53,0.032687574);
#55=LINE('',#52,#54);
#56=EDGE_CURVE('',#43,#51,#55,.T.);
#57=ORIENTED_EDGE('',*,*,#56,.T.);
#58=CARTESIAN_POINT('',(-15.5,18.,1.));
#59=DIRECTION('',(-0.,0.,-1.));
#60=VECTOR('',#59,2.);
#61=LINE('',#58,#60);
#62=EDGE_CURVE('',#51,#35,#61,.T.);
#63=ORIENTED_EDGE('',*,*,#62,.T.);
#64=EDGE_LOOP('',(#41,#49,#57,#63));
#65=FACE_BOUND('',#64,.T.);
#66=ADVANCED_FACE('',(#65),#31,.F.);
#67=CARTESIAN_POINT('',(-15.5,21.,-1.));
#68=DIRECTION('',(0.,-1.,-0.));
#69=DIRECTION('',(-1.,0.,0.));
#70=AXIS2_PLACEMENT_3D('',#67,#68,#69);
#71=PLANE('',#70);
#72=CARTESIAN_POINT('',(11.776712044,21.,-1.));
#73=VERTEX_POINT('',#72);
#74=CARTESIAN_POINT('',(12.5,21.,-1.));
#75=VERTEX_POINT('',#74);
#76=CARTESIAN_POINT('',(11.776712044,21.,-1.));
#77=DIRECTION('',(1.,0.,-0.));
#78=VECTOR('',#77,0.723287956);
#79=LINE('',#76,#78);
#80=EDGE_CURVE('',#73,#75,#79,.T.);
#81=ORIENTED_EDGE('',*,*,#80,.F.);
#82=CARTESIAN_POINT('',(11.776712044,21.,1.));
#83=VERTEX_POINT('',#82);
#84=CARTESIAN_POINT('',(11.776712044,21.,-1.));
#85=DIRECTION('',(0.,-0.,1.));
#86=VECTOR('',#85,2.);
#87=LINE('',#84,#86);
#88=EDGE_CURVE('',#73,#83,#87,.T.);
#89=ORIENTED_EDGE('',*,*,#88,.T.);
#90=CARTESIAN_POINT('',(12.5,21.,1.));
#91=VERTEX_POINT('',#90);
#92=CARTESIAN_POINT('',(11.776712044,21.,1.));
#93=DIRECTION('',(1.,0.,-0.));
#94=VECTOR('',#93,0.723287956);
#95=LINE('',#92,#94);
#96=EDGE_CURVE('',#83,#91,#95,.T.);
#97=ORIENTED_EDGE('',*,*,#96,.T.);
#98=CARTESIAN_POINT('',(12.5,21.,1.));
#99=DIRECTION('',(-0.,0.,-1.));
#100=VECTOR('',#99,2.);
#101=LINE('',#98,#100);
#102=EDGE_CURVE('',#91,#75,#101,.T.);
#103=ORIENTED_EDGE('',*,*,#102,.T.);
#104=EDGE_LOOP('',(#81,#89,#97,#103));
#105=FACE_BOUND('',#104,.T.);
#106=ADVANCED_FACE('',(#105),#71,.F.);
#107=CARTESIAN_POINT('',(15.5,-19.,-1.));
#108=DIRECTION('',(0.,1.,0.));
#109=DIRECTION('',(1.,0.,0.));
#110=AXIS2_PLACEMENT_3D('',#107,#108,#109);
#111=PLANE('',#110);
#112=CARTESIAN_POINT('',(-9.44221434,-19.,-1.));
#113=VERTEX_POINT('',#112);
#114=CARTESIAN_POINT('',(-9.663640775,-19.,-1.));
#115=VERTEX_POINT('',#114);
#116=CARTESIAN_POINT('',(-9.44221434,-19.,-1.));
#117=DIRECTION('',(-1.,-0.,0.));
#118=VECTOR('',#117,0.221426436);
#119=LINE('',#116,#118);
#120=EDGE_CURVE('',#113,#115,#119,.T.);
#121=ORIENTED_EDGE('',*,*,#120,.F.);
#122=CARTESIAN_POINT('',(-9.44221434,-19.,1.));
#123=VERTEX_POINT('',#122);
#124=CARTESIAN_POINT('',(-9.44221434,-19.,-1.));
#125=DIRECTION('',(0.,-0.,1.));
#126=VECTOR('',#125,2.);
#127=LINE('',#124,#126);
#128=EDGE_CURVE('',#113,#123,#127,.T.);
#129=ORIENTED_EDGE('',*,*,#128,.T.);
#130=CARTESIAN_POINT('',(-9.663640775,-19.,1.));
#131=VERTEX_POINT('',#130);
#132=CARTESIAN_POINT('',(-9.44221434,-19.,1.));
#133=DIRECTION('',(-1.,-0.,0.));
#134=VECTOR('',#133,0.221426436);
#135=LINE('',#132,#134);
#136=EDGE_CURVE('',#123,#131,#135,.T.);
#137=ORIENTED_EDGE('',*,*,#136,.T.);
#138=CARTESIAN_POINT('',(-9.663640775,-19.,1.));
#139=DIRECTION('',(-0.,0.,-1.));
#140=VECTOR('',#139,2.);
#141=LINE('',#138,#140);
#142=EDGE_CURVE('',#131,#115,#141,.T.);
#143=ORIENTED_EDGE('',*,*,#142,.T.);
#144=EDGE_LOOP('',(#121,#129,#137,#143));
#145=FACE_BOUND('',#144,.T.);
#146=ADVANCED_FACE('',(#145),#111,.F.);
#147=CARTESIAN_POINT('',(15.5,-19.,-1.));
#148=DIRECTION('',(0.,1.,0.));
#149=DIRECTION('',(1.,0.,0.));
#150=AXIS2_PLACEMENT_3D('',#147,#148,#149);
#151=PLANE('',#150);
#152=CARTESIAN_POINT('',(9.561703325,-19.,1.));
#153=VERTEX_POINT('',#152);
#154=CARTESIAN_POINT('',(9.242366528,-19.,1.));
#155=VERTEX_POINT('',#154);
#156=CARTESIAN_POINT('',(9.561703325,-19.,1.));
#157=DIRECTION('',(-1.,-0.,0.));
#158=VECTOR('',#157,0.319336797);
#159=LINE('',#156,#158);
#160=EDGE_CURVE('',#153,#155,#159,.T.);
#161=ORIENTED_EDGE('',*,*,#160,.T.);
#162=CARTESIAN_POINT('',(9.242366528,-19.,-1.));
#163=VERTEX_POINT('',#162);
#164=CARTESIAN_POINT('',(9.242366528,-19.,1.));
#165=DIRECTION('',(-0.,0.,-1.));
#166=VECTOR('',#165,2.);
#167=LINE('',#164,#166);
#168=EDGE_CURVE('',#155,#163,#167,.T.);
#169=ORIENTED_EDGE('',*,*,#168,.T.);
#170=CARTESIAN_POINT('',(9.561703325,-19.,-1.));
#171=VERTEX_POINT('',#170);
#172=CARTESIAN_POINT('',(9.561703325,-19.,-1.));
#173=DIRECTION('',(-1.,-0.,0.));
#174=VECTOR('',#173,0.319336797);
#175=LINE('',#172,#174);
#176=EDGE_CURVE('',#171,#163,#175,.T.);
#177=ORIENTED_EDGE('',*,*,#176,.F.);
#178=CARTESIAN_POINT('',(9.561703325,-19.,-1.));
#179=DIRECTION('',(0.,-0.,1.));
#180=VECTOR('',#179,2.);
#181=LINE('',#178,#180);
#182=EDGE_CURVE('',#171,#153,#181,.T.);
#183=ORIENTED_EDGE('',*,*,#182,.T.);
#184=EDGE_LOOP('',(#161,#169,#177,#183));
#185=FACE_BOUND('',#184,.T.);
#186=ADVANCED_FACE('',(#185),#151,.F.);
#187=CARTESIAN_POINT('',(0.,1.,-1.));
#188=DIRECTION('',(0.,0.,-1.));
#189=DIRECTION('',(0.,1.,0.));
#190=AXIS2_PLACEMENT_3D('',#187,#188,#189);
#191=PLANE('',#190);
#192=CARTESIAN_POINT('',(-0.005496104,-2.200738575,-1.));
#193=VERTEX_POINT('',#192);
#194=CARTESIAN_POINT('',(-0.005496104,5.860246949,-1.));
#195=VERTEX_POINT('',#194);
#196=CARTESIAN_POINT('',(-0.005496104,1.829754187,-1.));
#197=DIRECTION('',(0.,0.,-1.));
#198=DIRECTION('',(0.,1.,0.));
#199=AXIS2_PLACEMENT_3D('',#196,#197,#198);
#200=CIRCLE('',#199,4.030492762);
#201=EDGE_CURVE('',#193,#195,#200,.T.);
#202=ORIENTED_EDGE('',*,*,#201,.F.);
#203=CARTESIAN_POINT('',(-0.005496104,1.829754187,-1.));
#204=DIRECTION('',(0.,0.,-1.));
#205=DIRECTION('',(0.,1.,0.));
#206=AXIS2_PLACEMENT_3D('',#203,#204,#205);
#207=CIRCLE('',#206,4.030492762);
#208=EDGE_CURVE('',#195,#193,#207,.T.);
#209=ORIENTED_EDGE('',*,*,#208,.F.);
#210=EDGE_LOOP('',(#202,#209));
#211=FACE_BOUND('',#210,.T.);
#212=ORIENTED_EDGE('',*,*,#176,.T.);
#213=CARTESIAN_POINT('',(6.777414949,-17.709974769,-1.));
#214=VERTEX_POINT('',#213);
#215=CARTESIAN_POINT('',(9.242366528,-16.,-1.));
#216=DIRECTION('',(0.,0.,-1.));
#217=DIRECTION('',(0.,1.,0.));
#218=AXIS2_PLACEMENT_3D('',#215,#216,#217);
#219=CIRCLE('',#218,3.);
#220=EDGE_CURVE('',#163,#214,#219,.T.);
#221=ORIENTED_EDGE('',*,*,#220,.T.);
#222=CARTESIAN_POINT('',(-6.97726276,-17.709974769,-1.));
#223=VERTEX_POINT('',#222);
#224=CARTESIAN_POINT('',(-0.099923906,-22.480890359,-1.));
#225=DIRECTION('',(0.,0.,-1.));
#226=DIRECTION('',(0.,1.,0.));
#227=AXIS2_PLACEMENT_3D('',#224,#225,#226);
#228=CIRCLE('',#227,8.370150852);
#229=EDGE_CURVE('',#223,#214,#228,.T.);
#230=ORIENTED_EDGE('',*,*,#229,.F.);
#231=CARTESIAN_POINT('',(-9.44221434,-16.,-1.));
#232=DIRECTION('',(0.,0.,-1.));
#233=DIRECTION('',(0.,1.,0.));
#234=AXIS2_PLACEMENT_3D('',#231,#232,#233);
#235=CIRCLE('',#234,3.);
#236=EDGE_CURVE('',#223,#113,#235,.T.);
#237=ORIENTED_EDGE('',*,*,#236,.T.);
#238=ORIENTED_EDGE('',*,*,#120,.T.);
#239=CARTESIAN_POINT('',(-12.663640775,-16.,-1.));
#240=VERTEX_POINT('',#239);
#241=CARTESIAN_POINT('',(-9.663640775,-16.,-1.));
#242=DIRECTION('',(0.,0.,-1.));
#243=DIRECTION('',(0.,1.,0.));
#244=AXIS2_PLACEMENT_3D('',#241,#242,#243);
#245=CIRCLE('',#244,3.);
#246=EDGE_CURVE('',#115,#240,#245,.T.);
#247=ORIENTED_EDGE('',*,*,#246,.T.);
#248=CARTESIAN_POINT('',(-12.663640775,-3.363038303,-1.));
#249=VERTEX_POINT('',#248);
#250=CARTESIAN_POINT('',(-12.663640775,-16.,-1.));
#251=DIRECTION('',(0.,1.,0.));
#252=VECTOR('',#251,12.636961697);
#253=LINE('',#250,#252);
#254=EDGE_CURVE('',#240,#249,#253,.T.);
#255=ORIENTED_EDGE('',*,*,#254,.T.);
#256=CARTESIAN_POINT('',(-14.210745807,-0.738329517,-1.));
#257=VERTEX_POINT('',#256);
#258=CARTESIAN_POINT('',(-15.663640775,-3.363038303,-1.));
#259=DIRECTION('',(-0.,-0.,1.));
#260=DIRECTION('',(0.,1.,0.));
#261=AXIS2_PLACEMENT_3D('',#258,#259,#260);
#262=CIRCLE('',#261,3.);
#263=EDGE_CURVE('',#249,#257,#262,.T.);
#264=ORIENTED_EDGE('',*,*,#263,.T.);
#265=CARTESIAN_POINT('',(-15.5,1.448927805,-1.));
#266=VERTEX_POINT('',#265);
#267=CARTESIAN_POINT('',(-13.,1.448927805,-1.));
#268=DIRECTION('',(0.,0.,-1.));
#269=DIRECTION('',(0.,1.,0.));
#270=AXIS2_PLACEMENT_3D('',#267,#268,#269);
#271=CIRCLE('',#270,2.5);
#272=EDGE_CURVE('',#257,#266,#271,.T.);
#273=ORIENTED_EDGE('',*,*,#272,.T.);
#274=CARTESIAN_POINT('',(-15.5,1.516488857,-1.));
#275=VERTEX_POINT('',#274);
#276=CARTESIAN_POINT('',(-15.5,1.448927805,-1.));
#277=DIRECTION('',(0.,1.,0.));
#278=VECTOR('',#277,0.067561052);
#279=LINE('',#276,#278);
#280=EDGE_CURVE('',#266,#275,#279,.T.);
#281=ORIENTED_EDGE('',*,*,#280,.T.);
#282=CARTESIAN_POINT('',(-14.062768067,4.077300441,-1.));
#283=VERTEX_POINT('',#282);
#284=CARTESIAN_POINT('',(-12.5,1.516488857,-1.));
#285=DIRECTION('',(0.,0.,-1.));
#286=DIRECTION('',(0.,1.,0.));
#287=AXIS2_PLACEMENT_3D('',#284,#285,#286);
#288=CIRCLE('',#287,3.);
#289=EDGE_CURVE('',#275,#283,#288,.T.);
#290=ORIENTED_EDGE('',*,*,#289,.T.);
#291=CARTESIAN_POINT('',(-14.062768067,15.406500843,-1.));
#292=VERTEX_POINT('',#291);
#293=CARTESIAN_POINT('',(-17.51966289,9.741900642,-1.));
#294=DIRECTION('',(0.,0.,-1.));
#295=DIRECTION('',(0.,1.,0.));
#296=AXIS2_PLACEMENT_3D('',#293,#294,#295);
#297=CIRCLE('',#296,6.636099551);
#298=EDGE_CURVE('',#292,#283,#297,.T.);
#299=ORIENTED_EDGE('',*,*,#298,.F.);
#300=CARTESIAN_POINT('',(-12.5,17.967312426,-1.));
#301=DIRECTION('',(0.,0.,-1.));
#302=DIRECTION('',(0.,1.,0.));
#303=AXIS2_PLACEMENT_3D('',#300,#301,#302);
#304=CIRCLE('',#303,3.);
#305=EDGE_CURVE('',#292,#33,#304,.T.);
#306=ORIENTED_EDGE('',*,*,#305,.T.);
#307=ORIENTED_EDGE('',*,*,#40,.T.);
#308=CARTESIAN_POINT('',(-12.5,21.,-1.));
#309=VERTEX_POINT('',#308);
#310=CARTESIAN_POINT('',(-12.5,18.,-1.));
#311=DIRECTION('',(0.,0.,-1.));
#312=DIRECTION('',(0.,1.,0.));
#313=AXIS2_PLACEMENT_3D('',#310,#311,#312);
#314=CIRCLE('',#313,3.);
#315=EDGE_CURVE('',#35,#309,#314,.T.);
#316=ORIENTED_EDGE('',*,*,#315,.T.);
#317=CARTESIAN_POINT('',(-11.859572064,21.,-1.));
#318=VERTEX_POINT('',#317);
#319=CARTESIAN_POINT('',(-12.5,21.,-1.));
#320=DIRECTION('',(1.,0.,-0.));
#321=VECTOR('',#320,0.640427936);
#322=LINE('',#319,#321);
#323=EDGE_CURVE('',#309,#318,#322,.T.);
#324=ORIENTED_EDGE('',*,*,#323,.T.);
#325=CARTESIAN_POINT('',(-5.399849916,17.719320901,-1.));
#326=VERTEX_POINT('',#325);
#327=CARTESIAN_POINT('',(-11.859572064,13.,-1.));
#328=DIRECTION('',(0.,0.,-1.));
#329=DIRECTION('',(0.,1.,0.));
#330=AXIS2_PLACEMENT_3D('',#327,#328,#329);
#331=CIRCLE('',#330,8.);
#332=EDGE_CURVE('',#318,#326,#331,.T.);
#333=ORIENTED_EDGE('',*,*,#332,.T.);
#334=CARTESIAN_POINT('',(-0.04143001,14.997956765,-1.));
#335=VERTEX_POINT('',#334);
#336=CARTESIAN_POINT('',(-0.04143001,21.634056316,-1.));
#337=DIRECTION('',(0.,0.,-1.));
#338=DIRECTION('',(0.,1.,0.));
#339=AXIS2_PLACEMENT_3D('',#336,#337,#338);
#340=CIRCLE('',#339,6.636099551);
#341=EDGE_CURVE('',#335,#326,#340,.T.);
#342=ORIENTED_EDGE('',*,*,#341,.F.);
#343=CARTESIAN_POINT('',(5.316989896,17.719320901,-1.));
#344=VERTEX_POINT('',#343);
#345=CARTESIAN_POINT('',(-0.04143001,21.634056316,-1.));
#346=DIRECTION('',(0.,0.,-1.));
#347=DIRECTION('',(0.,1.,0.));
#348=AXIS2_PLACEMENT_3D('',#345,#346,#347);
#349=CIRCLE('',#348,6.636099551);
#350=EDGE_CURVE('',#344,#335,#349,.T.);
#351=ORIENTED_EDGE('',*,*,#350,.F.);
#352=CARTESIAN_POINT('',(11.776712044,13.,-1.));
#353=DIRECTION('',(0.,0.,-1.));
#354=DIRECTION('',(0.,1.,0.));
#355=AXIS2_PLACEMENT_3D('',#352,#353,#354);
#356=CIRCLE('',#355,8.);
#357=EDGE_CURVE('',#344,#73,#356,.T.);
#358=ORIENTED_EDGE('',*,*,#357,.T.);
#359=ORIENTED_EDGE('',*,*,#80,.T.);
#360=CARTESIAN_POINT('',(15.5,18.,-1.));
#361=VERTEX_POINT('',#360);
#362=CARTESIAN_POINT('',(12.5,18.,-1.));
#363=DIRECTION('',(0.,0.,-1.));
#364=DIRECTION('',(0.,1.,0.));
#365=AXIS2_PLACEMENT_3D('',#362,#363,#364);
#366=CIRCLE('',#365,3.);
#367=EDGE_CURVE('',#75,#361,#366,.T.);
#368=ORIENTED_EDGE('',*,*,#367,.T.);
#369=CARTESIAN_POINT('',(15.5,17.928449256,-1.));
#370=VERTEX_POINT('',#369);
#371=CARTESIAN_POINT('',(15.5,18.,-1.));
#372=DIRECTION('',(0.,-1.,0.));
#373=VECTOR('',#372,0.071550744);
#374=LINE('',#371,#373);
#375=EDGE_CURVE('',#361,#370,#374,.T.);
#376=ORIENTED_EDGE('',*,*,#375,.T.);
#377=CARTESIAN_POINT('',(14.082423901,15.379736915,-1.));
#378=VERTEX_POINT('',#377);
#379=CARTESIAN_POINT('',(12.5,17.928449256,-1.));
#380=DIRECTION('',(0.,0.,-1.));
#381=DIRECTION('',(0.,1.,0.));
#382=AXIS2_PLACEMENT_3D('',#379,#380,#381);
#383=CIRCLE('',#382,3.);
#384=EDGE_CURVE('',#370,#378,#383,.T.);
#385=ORIENTED_EDGE('',*,*,#384,.T.);
#386=CARTESIAN_POINT('',(14.082423901,4.104064368,-1.));
#387=VERTEX_POINT('',#386);
#388=CARTESIAN_POINT('',(17.582798082,9.741900642,-1.));
#389=DIRECTION('',(0.,0.,-1.));
#390=DIRECTION('',(0.,1.,0.));
#391=AXIS2_PLACEMENT_3D('',#388,#389,#390);
#392=CIRCLE('',#391,6.636099551);
#393=EDGE_CURVE('',#387,#378,#392,.T.);
#394=ORIENTED_EDGE('',*,*,#393,.F.);
#395=CARTESIAN_POINT('',(15.490894449,1.788912286,-1.));
#396=VERTEX_POINT('',#395);
#397=CARTESIAN_POINT('',(12.5,1.555352027,-1.));
#398=DIRECTION('',(0.,0.,-1.));
#399=DIRECTION('',(0.,1.,0.));
#400=AXIS2_PLACEMENT_3D('',#397,#398,#399);
#401=CIRCLE('',#400,3.);
#402=EDGE_CURVE('',#387,#396,#401,.T.);
#403=ORIENTED_EDGE('',*,*,#402,.T.);
#404=CARTESIAN_POINT('',(14.156949259,-0.621111647,-1.));
#405=VERTEX_POINT('',#404);
#406=CARTESIAN_POINT('',(12.998482408,1.594278737,-1.));
#407=DIRECTION('',(0.,0.,-1.));
#408=DIRECTION('',(0.,1.,0.));
#409=AXIS2_PLACEMENT_3D('',#406,#407,#408);
#410=CIRCLE('',#409,2.5);
#411=EDGE_CURVE('',#396,#405,#410,.T.);
#412=ORIENTED_EDGE('',*,*,#411,.T.);
#413=CARTESIAN_POINT('',(12.547111456,-3.283022869,-1.));
#414=VERTEX_POINT('',#413);
#415=CARTESIAN_POINT('',(15.547109481,-3.279580108,-1.));
#416=DIRECTION('',(-0.,-0.,1.));
#417=DIRECTION('',(0.,1.,0.));
#418=AXIS2_PLACEMENT_3D('',#415,#416,#417);
#419=CIRCLE('',#418,3.);
#420=EDGE_CURVE('',#405,#414,#419,.T.);
#421=ORIENTED_EDGE('',*,*,#420,.T.);
#422=CARTESIAN_POINT('',(12.56170135,-15.99655724,-1.));
#423=VERTEX_POINT('',#422);
#424=CARTESIAN_POINT('',(12.547111456,-3.283022869,-1.));
#425=DIRECTION('',(0.001147587,-0.999999342,-0.));
#426=VECTOR('',#425,12.713542743);
#427=LINE('',#424,#426);
#428=EDGE_CURVE('',#414,#423,#427,.T.);
#429=ORIENTED_EDGE('',*,*,#428,.T.);
#430=CARTESIAN_POINT('',(9.561703325,-16.,-1.));
#431=DIRECTION('',(0.,0.,-1.));
#432=DIRECTION('',(0.,1.,0.));
#433=AXIS2_PLACEMENT_3D('',#430,#431,#432);
#434=CIRCLE('',#433,3.);
#435=EDGE_CURVE('',#423,#171,#434,.T.);
#436=ORIENTED_EDGE('',*,*,#435,.T.);
#437=EDGE_LOOP('',(#212,#221,#230,#237,#238,#247,#255,#264,#273,#281,#290,#299,#306,#307,#316,#324,#333,#342,#351,#358,#359,#368,#376,#385,#394,#403,
#412,#421,#429,#436));
#438=FACE_BOUND('',#437,.T.);
#439=CARTESIAN_POINT('',(9.636620186,-18.010103547,-1.));
#440=VERTEX_POINT('',#439);
#441=CARTESIAN_POINT('',(9.636620186,-15.010103547,-1.));
#442=VERTEX_POINT('',#441);
#443=CARTESIAN_POINT('',(9.636620186,-16.510103547,-1.));
#444=DIRECTION('',(0.,0.,-1.));
#445=DIRECTION('',(0.,1.,0.));
#446=AXIS2_PLACEMENT_3D('',#443,#444,#445);
#447=CIRCLE('',#446,1.5);
#448=EDGE_CURVE('',#440,#442,#447,.T.);
#449=ORIENTED_EDGE('',*,*,#448,.F.);
#450=CARTESIAN_POINT('',(9.636620186,-16.510103547,-1.));
#451=DIRECTION('',(0.,0.,-1.));
#452=DIRECTION('',(0.,1.,0.));
#453=AXIS2_PLACEMENT_3D('',#450,#451,#452);
#454=CIRCLE('',#453,1.5);
#455=EDGE_CURVE('',#442,#440,#454,.T.);
#456=ORIENTED_EDGE('',*,*,#455,.F.);
#457=EDGE_LOOP('',(#449,#456));
#458=FACE_BOUND('',#457,.T.);
#459=CARTESIAN_POINT('',(-9.663379814,-18.010103547,-1.));
#460=VERTEX_POINT('',#459);
#461=CARTESIAN_POINT('',(-9.663379814,-15.010103547,-1.));
#462=VERTEX_POINT('',#461);
#463=CARTESIAN_POINT('',(-9.663379814,-16.510103547,-1.));
#464=DIRECTION('',(0.,0.,-1.));
#465=DIRECTION('',(0.,1.,0.));
#466=AXIS2_PLACEMENT_3D('',#463,#464,#465);
#467=CIRCLE('',#466,1.5);
#468=EDGE_CURVE('',#460,#462,#467,.T.);
#469=ORIENTED_EDGE('',*,*,#468,.F.);
#470=CARTESIAN_POINT('',(-9.663379814,-16.510103547,-1.));
#471=DIRECTION('',(0.,0.,-1.));
#472=DIRECTION('',(0.,1.,0.));
#473=AXIS2_PLACEMENT_3D('',#470,#471,#472);
#474=CIRCLE('',#473,1.5);
#475=EDGE_CURVE('',#462,#460,#474,.T.);
#476=ORIENTED_EDGE('',*,*,#475,.F.);
#477=EDGE_LOOP('',(#469,#476));
#478=FACE_BOUND('',#477,.T.);
#479=CARTESIAN_POINT('',(11.,16.374340462,-1.));
#480=VERTEX_POINT('',#479);
#481=CARTESIAN_POINT('',(11.,18.674340462,-1.));
#482=VERTEX_POINT('',#481);
#483=CARTESIAN_POINT('',(11.,17.524340462,-1.));
#484=DIRECTION('',(0.,0.,-1.));
#485=DIRECTION('',(0.,1.,0.));
#486=AXIS2_PLACEMENT_3D('',#483,#484,#485);
#487=CIRCLE('',#486,1.15);
#488=EDGE_CURVE('',#480,#482,#487,.T.);
#489=ORIENTED_EDGE('',*,*,#488,.F.);
#490=CARTESIAN_POINT('',(11.,17.524340462,-1.));
#491=DIRECTION('',(0.,0.,-1.));
#492=DIRECTION('',(0.,1.,0.));
#493=AXIS2_PLACEMENT_3D('',#490,#491,#492);
#494=CIRCLE('',#493,1.15);
#495=EDGE_CURVE('',#482,#480,#494,.T.);
#496=ORIENTED_EDGE('',*,*,#495,.F.);
#497=EDGE_LOOP('',(#489,#496));
#498=FACE_BOUND('',#497,.T.);
#499=CARTESIAN_POINT('',(11.,1.374340462,-1.));
#500=VERTEX_POINT('',#499);
#501=CARTESIAN_POINT('',(11.,3.674340462,-1.));
#502=VERTEX_POINT('',#501);
#503=CARTESIAN_POINT('',(11.,2.524340462,-1.));
#504=DIRECTION('',(0.,0.,-1.));
#505=DIRECTION('',(0.,1.,0.));
#506=AXIS2_PLACEMENT_3D('',#503,#504,#505);
#507=CIRCLE('',#506,1.15);
#508=EDGE_CURVE('',#500,#502,#507,.T.);
#509=ORIENTED_EDGE('',*,*,#508,.F.);
#510=CARTESIAN_POINT('',(11.,2.524340462,-1.));
#511=DIRECTION('',(0.,0.,-1.));
#512=DIRECTION('',(0.,1.,0.));
#513=AXIS2_PLACEMENT_3D('',#510,#511,#512);
#514=CIRCLE('',#513,1.15);
#515=EDGE_CURVE('',#502,#500,#514,.T.);
#516=ORIENTED_EDGE('',*,*,#515,.F.);
#517=EDGE_LOOP('',(#509,#516));
#518=FACE_BOUND('',#517,.T.);
#519=CARTESIAN_POINT('',(-11.,1.374340462,-1.));
#520=VERTEX_POINT('',#519);
#521=CARTESIAN_POINT('',(-11.,3.674340462,-1.));
#522=VERTEX_POINT('',#521);
#523=CARTESIAN_POINT('',(-11.,2.524340462,-1.));
#524=DIRECTION('',(0.,0.,-1.));
#525=DIRECTION('',(0.,1.,0.));
#526=AXIS2_PLACEMENT_3D('',#523,#524,#525);
#527=CIRCLE('',#526,1.15);
#528=EDGE_CURVE('',#520,#522,#527,.T.);
#529=ORIENTED_EDGE('',*,*,#528,.F.);
#530=CARTESIAN_POINT('',(-11.,2.524340462,-1.));
#531=DIRECTION('',(0.,0.,-1.));
#532=DIRECTION('',(0.,1.,0.));
#533=AXIS2_PLACEMENT_3D('',#530,#531,#532);
#534=CIRCLE('',#533,1.15);
#535=EDGE_CURVE('',#522,#520,#534,.T.);
#536=ORIENTED_EDGE('',*,*,#535,.F.);
#537=EDGE_LOOP('',(#529,#536));
#538=FACE_BOUND('',#537,.T.);
#539=CARTESIAN_POINT('',(-11.,16.374340462,-1.));
#540=VERTEX_POINT('',#539);
#541=CARTESIAN_POINT('',(-11.,18.674340462,-1.));
#542=VERTEX_POINT('',#541);
#543=CARTESIAN_POINT('',(-11.,17.524340462,-1.));
#544=DIRECTION('',(0.,0.,-1.));
#545=DIRECTION('',(0.,1.,0.));
#546=AXIS2_PLACEMENT_3D('',#543,#544,#545);
#547=CIRCLE('',#546,1.15);
#548=EDGE_CURVE('',#540,#542,#547,.T.);
#549=ORIENTED_EDGE('',*,*,#548,.F.);
#550=CARTESIAN_POINT('',(-11.,17.524340462,-1.));
#551=DIRECTION('',(0.,0.,-1.));
#552=DIRECTION('',(0.,1.,0.));
#553=AXIS2_PLACEMENT_3D('',#550,#551,#552);
#554=CIRCLE('',#553,1.15);
#555=EDGE_CURVE('',#542,#540,#554,.T.);
#556=ORIENTED_EDGE('',*,*,#555,.F.);
#557=EDGE_LOOP('',(#549,#556));
#558=FACE_BOUND('',#557,.T.);
#559=ADVANCED_FACE('',(#211,#438,#458,#478,#498,#518,#538,#558),#191,.T.);
#560=CARTESIAN_POINT('',(0.,1.,1.));
#561=DIRECTION('',(0.,0.,-1.));
#562=DIRECTION('',(0.,1.,0.));
#563=AXIS2_PLACEMENT_3D('',#560,#561,#562);
#564=PLANE('',#563);
#565=CARTESIAN_POINT('',(-0.005496104,5.860246949,1.));
#566=VERTEX_POINT('',#565);
#567=CARTESIAN_POINT('',(-0.005496104,-2.200738575,1.));
#568=VERTEX_POINT('',#567);
#569=CARTESIAN_POINT('',(-0.005496104,1.829754187,1.));
#570=DIRECTION('',(0.,0.,-1.));
#571=DIRECTION('',(0.,1.,0.));
#572=AXIS2_PLACEMENT_3D('',#569,#570,#571);
#573=CIRCLE('',#572,4.030492762);
#574=EDGE_CURVE('',#566,#568,#573,.T.);
#575=ORIENTED_EDGE('',*,*,#574,.T.);
#576=CARTESIAN_POINT('',(-0.005496104,1.829754187,1.));
#577=DIRECTION('',(0.,0.,-1.));
#578=DIRECTION('',(0.,1.,0.));
#579=AXIS2_PLACEMENT_3D('',#576,#577,#578);
#580=CIRCLE('',#579,4.030492762);
#581=EDGE_CURVE('',#568,#566,#580,.T.);
#582=ORIENTED_EDGE('',*,*,#581,.T.);
#583=EDGE_LOOP('',(#575,#582));
#584=FACE_BOUND('',#583,.T.);
#585=CARTESIAN_POINT('',(9.636620186,-15.010103547,1.));
#586=VERTEX_POINT('',#585);
#587=CARTESIAN_POINT('',(9.636620186,-18.010103547,1.));
#588=VERTEX_POINT('',#587);
#589=CARTESIAN_POINT('',(9.636620186,-16.510103547,1.));
#590=DIRECTION('',(0.,0.,-1.));
#591=DIRECTION('',(0.,1.,0.));
#592=AXIS2_PLACEMENT_3D('',#589,#590,#591);
#593=CIRCLE('',#592,1.5);
#594=EDGE_CURVE('',#586,#588,#593,.T.);
#595=ORIENTED_EDGE('',*,*,#594,.T.);
#596=CARTESIAN_POINT('',(9.636620186,-16.510103547,1.));
#597=DIRECTION('',(0.,0.,-1.));
#598=DIRECTION('',(0.,1.,0.));
#599=AXIS2_PLACEMENT_3D('',#596,#597,#598);
#600=CIRCLE('',#599,1.5);
#601=EDGE_CURVE('',#588,#586,#600,.T.);
#602=ORIENTED_EDGE('',*,*,#601,.T.);
#603=EDGE_LOOP('',(#595,#602));
#604=FACE_BOUND('',#603,.T.);
#605=CARTESIAN_POINT('',(-9.663379814,-15.010103547,1.));
#606=VERTEX_POINT('',#605);
#607=CARTESIAN_POINT('',(-9.663379814,-18.010103547,1.));
#608=VERTEX_POINT('',#607);
#609=CARTESIAN_POINT('',(-9.663379814,-16.510103547,1.));
#610=DIRECTION('',(0.,0.,-1.));
#611=DIRECTION('',(0.,1.,0.));
#612=AXIS2_PLACEMENT_3D('',#609,#610,#611);
#613=CIRCLE('',#612,1.5);
#614=EDGE_CURVE('',#606,#608,#613,.T.);
#615=ORIENTED_EDGE('',*,*,#614,.T.);
#616=CARTESIAN_POINT('',(-9.663379814,-16.510103547,1.));
#617=DIRECTION('',(0.,0.,-1.));
#618=DIRECTION('',(0.,1.,0.));
#619=AXIS2_PLACEMENT_3D('',#616,#617,#618);
#620=CIRCLE('',#619,1.5);
#621=EDGE_CURVE('',#608,#606,#620,.T.);
#622=ORIENTED_EDGE('',*,*,#621,.T.);
#623=EDGE_LOOP('',(#615,#622));
#624=FACE_BOUND('',#623,.T.);
#625=CARTESIAN_POINT('',(11.,18.674340462,1.));
#626=VERTEX_POINT('',#625);
#627=CARTESIAN_POINT('',(11.,16.374340462,1.));
#628=VERTEX_POINT('',#627);
#629=CARTESIAN_POINT('',(11.,17.524340462,1.));
#630=DIRECTION('',(0.,0.,-1.));
#631=DIRECTION('',(0.,1.,0.));
#632=AXIS2_PLACEMENT_3D('',#629,#630,#631);
#633=CIRCLE('',#632,1.15);
#634=EDGE_CURVE('',#626,#628,#633,.T.);
#635=ORIENTED_EDGE('',*,*,#634,.T.);
#636=CARTESIAN_POINT('',(11.,17.524340462,1.));
#637=DIRECTION('',(0.,0.,-1.));
#638=DIRECTION('',(0.,1.,0.));
#639=AXIS2_PLACEMENT_3D('',#636,#637,#638);
#640=CIRCLE('',#639,1.15);
#641=EDGE_CURVE('',#628,#626,#640,.T.);
#642=ORIENTED_EDGE('',*,*,#641,.T.);
#643=EDGE_LOOP('',(#635,#642));
#644=FACE_BOUND('',#643,.T.);
#645=CARTESIAN_POINT('',(11.,3.674340462,1.));
#646=VERTEX_POINT('',#645);
#647=CARTESIAN_POINT('',(11.,1.374340462,1.));
#648=VERTEX_POINT('',#647);
#649=CARTESIAN_POINT('',(11.,2.524340462,1.));
#650=DIRECTION('',(0.,0.,-1.));
#651=DIRECTION('',(0.,1.,0.));
#652=AXIS2_PLACEMENT_3D('',#649,#650,#651);
#653=CIRCLE('',#652,1.15);
#654=EDGE_CURVE('',#646,#648,#653,.T.);
#655=ORIENTED_EDGE('',*,*,#654,.T.);
#656=CARTESIAN_POINT('',(11.,2.524340462,1.));
#657=DIRECTION('',(0.,0.,-1.));
#658=DIRECTION('',(0.,1.,0.));
#659=AXIS2_PLACEMENT_3D('',#656,#657,#658);
#660=CIRCLE('',#659,1.15);
#661=EDGE_CURVE('',#648,#646,#660,.T.);
#662=ORIENTED_EDGE('',*,*,#661,.T.);
#663=EDGE_LOOP('',(#655,#662));
#664=FACE_BOUND('',#663,.T.);
#665=CARTESIAN_POINT('',(-11.,3.674340462,1.));
#666=VERTEX_POINT('',#665);
#667=CARTESIAN_POINT('',(-11.,1.374340462,1.));
#668=VERTEX_POINT('',#667);
#669=CARTESIAN_POINT('',(-11.,2.524340462,1.));
#670=DIRECTION('',(0.,0.,-1.));
#671=DIRECTION('',(0.,1.,0.));
#672=AXIS2_PLACEMENT_3D('',#669,#670,#671);
#673=CIRCLE('',#672,1.15);
#674=EDGE_CURVE('',#666,#668,#673,.T.);
#675=ORIENTED_EDGE('',*,*,#674,.T.);
#676=CARTESIAN_POINT('',(-11.,2.524340462,1.));
#677=DIRECTION('',(0.,0.,-1.));
#678=DIRECTION('',(0.,1.,0.));
#679=AXIS2_PLACEMENT_3D('',#676,#677,#678);
#680=CIRCLE('',#679,1.15);
#681=EDGE_CURVE('',#668,#666,#680,.T.);
#682=ORIENTED_EDGE('',*,*,#681,.T.);
#683=EDGE_LOOP('',(#675,#682));
#684=FACE_BOUND('',#683,.T.);
#685=CARTESIAN_POINT('',(-11.,18.674340462,1.));
#686=VERTEX_POINT('',#685);
#687=CARTESIAN_POINT('',(-11.,16.374340462,1.));
#688=VERTEX_POINT('',#687);
#689=CARTESIAN_POINT('',(-11.,17.524340462,1.));
#690=DIRECTION('',(0.,0.,-1.));
#691=DIRECTION('',(0.,1.,0.));
#692=AXIS2_PLACEMENT_3D('',#689,#690,#691);
#693=CIRCLE('',#692,1.15);
#694=EDGE_CURVE('',#686,#688,#693,.T.);
#695=ORIENTED_EDGE('',*,*,#694,.T.);
#696=CARTESIAN_POINT('',(-11.,17.524340462,1.));
#697=DIRECTION('',(0.,0.,-1.));
#698=DIRECTION('',(0.,1.,0.));
#699=AXIS2_PLACEMENT_3D('',#696,#697,#698);
#700=CIRCLE('',#699,1.15);
#701=EDGE_CURVE('',#688,#686,#700,.T.);
#702=ORIENTED_EDGE('',*,*,#701,.T.);
#703=EDGE_LOOP('',(#695,#702));
#704=FACE_BOUND('',#703,.T.);
#705=CARTESIAN_POINT('',(-6.97726276,-17.709974769,1.));
#706=VERTEX_POINT('',#705);
#707=CARTESIAN_POINT('',(6.777414949,-17.709974769,1.));
#708=VERTEX_POINT('',#707);
#709=CARTESIAN_POINT('',(-0.099923906,-22.480890359,1.));
#710=DIRECTION('',(0.,0.,-1.));
#711=DIRECTION('',(0.,1.,0.));
#712=AXIS2_PLACEMENT_3D('',#709,#710,#711);
#713=CIRCLE('',#712,8.370150852);
#714=EDGE_CURVE('',#706,#708,#713,.T.);
#715=ORIENTED_EDGE('',*,*,#714,.T.);
#716=CARTESIAN_POINT('',(9.242366528,-16.,1.));
#717=DIRECTION('',(-0.,-0.,1.));
#718=DIRECTION('',(0.,1.,0.));
#719=AXIS2_PLACEMENT_3D('',#716,#717,#718);
#720=CIRCLE('',#719,3.);
#721=EDGE_CURVE('',#708,#155,#720,.T.);
#722=ORIENTED_EDGE('',*,*,#721,.T.);
#723=ORIENTED_EDGE('',*,*,#160,.F.);
#724=CARTESIAN_POINT('',(12.56170135,-15.99655724,1.));
#725=VERTEX_POINT('',#724);
#726=CARTESIAN_POINT('',(9.561703325,-16.,1.));
#727=DIRECTION('',(-0.,-0.,1.));
#728=DIRECTION('',(0.,1.,0.));
#729=AXIS2_PLACEMENT_3D('',#726,#727,#728);
#730=CIRCLE('',#729,3.);
#731=EDGE_CURVE('',#153,#725,#730,.T.);
#732=ORIENTED_EDGE('',*,*,#731,.T.);
#733=CARTESIAN_POINT('',(12.547111456,-3.283022869,1.));
#734=VERTEX_POINT('',#733);
#735=CARTESIAN_POINT('',(12.547111456,-3.283022869,1.));
#736=DIRECTION('',(0.001147587,-0.999999342,-0.));
#737=VECTOR('',#736,12.713542743);
#738=LINE('',#735,#737);
#739=EDGE_CURVE('',#734,#725,#738,.T.);
#740=ORIENTED_EDGE('',*,*,#739,.F.);
#741=CARTESIAN_POINT('',(14.156949259,-0.621111647,1.));
#742=VERTEX_POINT('',#741);
#743=CARTESIAN_POINT('',(15.547109481,-3.279580108,1.));
#744=DIRECTION('',(0.,0.,-1.));
#745=DIRECTION('',(0.,1.,0.));
#746=AXIS2_PLACEMENT_3D('',#743,#744,#745);
#747=CIRCLE('',#746,3.);
#748=EDGE_CURVE('',#734,#742,#747,.T.);
#749=ORIENTED_EDGE('',*,*,#748,.T.);
#750=CARTESIAN_POINT('',(15.490894449,1.788912286,1.));
#751=VERTEX_POINT('',#750);
#752=CARTESIAN_POINT('',(12.998482408,1.594278737,1.));
#753=DIRECTION('',(-0.,-0.,1.));
#754=DIRECTION('',(0.,1.,0.));
#755=AXIS2_PLACEMENT_3D('',#752,#753,#754);
#756=CIRCLE('',#755,2.5);
#757=EDGE_CURVE('',#742,#751,#756,.T.);
#758=ORIENTED_EDGE('',*,*,#757,.T.);
#759=CARTESIAN_POINT('',(14.082423901,4.104064368,1.));
#760=VERTEX_POINT('',#759);
#761=CARTESIAN_POINT('',(12.5,1.555352027,1.));
#762=DIRECTION('',(-0.,-0.,1.));
#763=DIRECTION('',(0.,1.,0.));
#764=AXIS2_PLACEMENT_3D('',#761,#762,#763);
#765=CIRCLE('',#764,3.);
#766=EDGE_CURVE('',#751,#760,#765,.T.);
#767=ORIENTED_EDGE('',*,*,#766,.T.);
#768=CARTESIAN_POINT('',(14.082423901,15.379736915,1.));
#769=VERTEX_POINT('',#768);
#770=CARTESIAN_POINT('',(17.582798082,9.741900642,1.));
#771=DIRECTION('',(0.,0.,-1.));
#772=DIRECTION('',(0.,1.,0.));
#773=AXIS2_PLACEMENT_3D('',#770,#771,#772);
#774=CIRCLE('',#773,6.636099551);
#775=EDGE_CURVE('',#760,#769,#774,.T.);
#776=ORIENTED_EDGE('',*,*,#775,.T.);
#777=CARTESIAN_POINT('',(15.5,17.928449256,1.));
#778=VERTEX_POINT('',#777);
#779=CARTESIAN_POINT('',(12.5,17.928449256,1.));
#780=DIRECTION('',(-0.,-0.,1.));
#781=DIRECTION('',(0.,1.,0.));
#782=AXIS2_PLACEMENT_3D('',#779,#780,#781);
#783=CIRCLE('',#782,3.);
#784=EDGE_CURVE('',#769,#778,#783,.T.);
#785=ORIENTED_EDGE('',*,*,#784,.T.);
#786=CARTESIAN_POINT('',(15.5,18.,1.));
#787=VERTEX_POINT('',#786);
#788=CARTESIAN_POINT('',(15.5,18.,1.));
#789=DIRECTION('',(0.,-1.,0.));
#790=VECTOR('',#789,0.071550744);
#791=LINE('',#788,#790);
#792=EDGE_CURVE('',#787,#778,#791,.T.);
#793=ORIENTED_EDGE('',*,*,#792,.F.);
#794=CARTESIAN_POINT('',(12.5,18.,1.));
#795=DIRECTION('',(-0.,-0.,1.));
#796=DIRECTION('',(0.,1.,0.));
#797=AXIS2_PLACEMENT_3D('',#794,#795,#796);
#798=CIRCLE('',#797,3.);
#799=EDGE_CURVE('',#787,#91,#798,.T.);
#800=ORIENTED_EDGE('',*,*,#799,.T.);
#801=ORIENTED_EDGE('',*,*,#96,.F.);
#802=CARTESIAN_POINT('',(5.316989896,17.719320901,1.));
#803=VERTEX_POINT('',#802);
#804=CARTESIAN_POINT('',(11.776712044,13.,1.));
#805=DIRECTION('',(-0.,-0.,1.));
#806=DIRECTION('',(0.,1.,0.));
#807=AXIS2_PLACEMENT_3D('',#804,#805,#806);
#808=CIRCLE('',#807,8.);
#809=EDGE_CURVE('',#83,#803,#808,.T.);
#810=ORIENTED_EDGE('',*,*,#809,.T.);
#811=CARTESIAN_POINT('',(-0.04143001,14.997956765,1.));
#812=VERTEX_POINT('',#811);
#813=CARTESIAN_POINT('',(-0.04143001,21.634056316,1.));
#814=DIRECTION('',(0.,0.,-1.));
#815=DIRECTION('',(0.,1.,0.));
#816=AXIS2_PLACEMENT_3D('',#813,#814,#815);
#817=CIRCLE('',#816,6.636099551);
#818=EDGE_CURVE('',#803,#812,#817,.T.);
#819=ORIENTED_EDGE('',*,*,#818,.T.);
#820=CARTESIAN_POINT('',(-5.399849916,17.719320901,1.));
#821=VERTEX_POINT('',#820);
#822=CARTESIAN_POINT('',(-0.04143001,21.634056316,1.));
#823=DIRECTION('',(0.,0.,-1.));
#824=DIRECTION('',(0.,1.,0.));
#825=AXIS2_PLACEMENT_3D('',#822,#823,#824);
#826=CIRCLE('',#825,6.636099551);
#827=EDGE_CURVE('',#812,#821,#826,.T.);
#828=ORIENTED_EDGE('',*,*,#827,.T.);
#829=CARTESIAN_POINT('',(-11.859572064,21.,1.));
#830=VERTEX_POINT('',#829);
#831=CARTESIAN_POINT('',(-11.859572064,13.,1.));
#832=DIRECTION('',(-0.,-0.,1.));
#833=DIRECTION('',(0.,1.,0.));
#834=AXIS2_PLACEMENT_3D('',#831,#832,#833);
#835=CIRCLE('',#834,8.);
#836=EDGE_CURVE('',#821,#830,#835,.T.);
#837=ORIENTED_EDGE('',*,*,#836,.T.);
#838=CARTESIAN_POINT('',(-12.5,21.,1.));
#839=VERTEX_POINT('',#838);
#840=CARTESIAN_POINT('',(-12.5,21.,1.));
#841=DIRECTION('',(1.,0.,-0.));
#842=VECTOR('',#841,0.640427936);
#843=LINE('',#840,#842);
#844=EDGE_CURVE('',#839,#830,#843,.T.);
#845=ORIENTED_EDGE('',*,*,#844,.F.);
#846=CARTESIAN_POINT('',(-12.5,18.,1.));
#847=DIRECTION('',(-0.,-0.,1.));
#848=DIRECTION('',(0.,1.,0.));
#849=AXIS2_PLACEMENT_3D('',#846,#847,#848);
#850=CIRCLE('',#849,3.);
#851=EDGE_CURVE('',#839,#51,#850,.T.);
#852=ORIENTED_EDGE('',*,*,#851,.T.);
#853=ORIENTED_EDGE('',*,*,#56,.F.);
#854=CARTESIAN_POINT('',(-14.062768067,15.406500843,1.));
#855=VERTEX_POINT('',#854);
#856=CARTESIAN_POINT('',(-12.5,17.967312426,1.));
#857=DIRECTION('',(-0.,-0.,1.));
#858=DIRECTION('',(0.,1.,0.));
#859=AXIS2_PLACEMENT_3D('',#856,#857,#858);
#860=CIRCLE('',#859,3.);
#861=EDGE_CURVE('',#43,#855,#860,.T.);
#862=ORIENTED_EDGE('',*,*,#861,.T.);
#863=CARTESIAN_POINT('',(-14.062768067,4.077300441,1.));
#864=VERTEX_POINT('',#863);
#865=CARTESIAN_POINT('',(-17.51966289,9.741900642,1.));
#866=DIRECTION('',(0.,0.,-1.));
#867=DIRECTION('',(0.,1.,0.));
#868=AXIS2_PLACEMENT_3D('',#865,#866,#867);
#869=CIRCLE('',#868,6.636099551);
#870=EDGE_CURVE('',#855,#864,#869,.T.);
#871=ORIENTED_EDGE('',*,*,#870,.T.);
#872=CARTESIAN_POINT('',(-15.5,1.516488857,1.));
#873=VERTEX_POINT('',#872);
#874=CARTESIAN_POINT('',(-12.5,1.516488857,1.));
#875=DIRECTION('',(-0.,-0.,1.));
#876=DIRECTION('',(0.,1.,0.));
#877=AXIS2_PLACEMENT_3D('',#874,#875,#876);
#878=CIRCLE('',#877,3.);
#879=EDGE_CURVE('',#864,#873,#878,.T.);
#880=ORIENTED_EDGE('',*,*,#879,.T.);
#881=CARTESIAN_POINT('',(-15.5,1.448927805,1.));
#882=VERTEX_POINT('',#881);
#883=CARTESIAN_POINT('',(-15.5,1.448927805,1.));
#884=DIRECTION('',(0.,1.,0.));
#885=VECTOR('',#884,0.067561052);
#886=LINE('',#883,#885);
#887=EDGE_CURVE('',#882,#873,#886,.T.);
#888=ORIENTED_EDGE('',*,*,#887,.F.);
#889=CARTESIAN_POINT('',(-14.210745807,-0.738329517,1.));
#890=VERTEX_POINT('',#889);
#891=CARTESIAN_POINT('',(-13.,1.448927805,1.));
#892=DIRECTION('',(-0.,-0.,1.));
#893=DIRECTION('',(0.,1.,0.));
#894=AXIS2_PLACEMENT_3D('',#891,#892,#893);
#895=CIRCLE('',#894,2.5);
#896=EDGE_CURVE('',#882,#890,#895,.T.);
#897=ORIENTED_EDGE('',*,*,#896,.T.);
#898=CARTESIAN_POINT('',(-12.663640775,-3.363038303,1.));
#899=VERTEX_POINT('',#898);
#900=CARTESIAN_POINT('',(-15.663640775,-3.363038303,1.));
#901=DIRECTION('',(0.,0.,-1.));
#902=DIRECTION('',(0.,1.,0.));
#903=AXIS2_PLACEMENT_3D('',#900,#901,#902);
#904=CIRCLE('',#903,3.);
#905=EDGE_CURVE('',#890,#899,#904,.T.);
#906=ORIENTED_EDGE('',*,*,#905,.T.);
#907=CARTESIAN_POINT('',(-12.663640775,-16.,1.));
#908=VERTEX_POINT('',#907);
#909=CARTESIAN_POINT('',(-12.663640775,-16.,1.));
#910=DIRECTION('',(0.,1.,0.));
#911=VECTOR('',#910,12.636961697);
#912=LINE('',#909,#911);
#913=EDGE_CURVE('',#908,#899,#912,.T.);
#914=ORIENTED_EDGE('',*,*,#913,.F.);
#915=CARTESIAN_POINT('',(-9.663640775,-16.,1.));
#916=DIRECTION('',(-0.,-0.,1.));
#917=DIRECTION('',(0.,1.,0.));
#918=AXIS2_PLACEMENT_3D('',#915,#916,#917);
#919=CIRCLE('',#918,3.);
#920=EDGE_CURVE('',#908,#131,#919,.T.);
#921=ORIENTED_EDGE('',*,*,#920,.T.);
#922=ORIENTED_EDGE('',*,*,#136,.F.);
#923=CARTESIAN_POINT('',(-9.44221434,-16.,1.));
#924=DIRECTION('',(-0.,-0.,1.));
#925=DIRECTION('',(0.,1.,0.));
#926=AXIS2_PLACEMENT_3D('',#923,#924,#925);
#927=CIRCLE('',#926,3.);
#928=EDGE_CURVE('',#123,#706,#927,.T.);
#929=ORIENTED_EDGE('',*,*,#928,.T.);
#930=EDGE_LOOP('',(#715,#722,#723,#732,#740,#749,#758,#767,#776,#785,#793,#800,#801,#810,#819,#828,#837,#845,#852,#853,#862,#871,#880,#888,#897,#906,
#914,#921,#922,#929));
#931=FACE_BOUND('',#930,.T.);
#932=ADVANCED_FACE('',(#584,#604,#624,#644,#664,#684,#704,#931),#564,.F.);
#933=CARTESIAN_POINT('',(15.5,21.,-1.));
#934=DIRECTION('',(-1.,0.,0.));
#935=DIRECTION('',(0.,1.,0.));
#936=AXIS2_PLACEMENT_3D('',#933,#934,#935);
#937=PLANE('',#936);
#938=ORIENTED_EDGE('',*,*,#792,.T.);
#939=CARTESIAN_POINT('',(15.5,17.928449256,1.));
#940=DIRECTION('',(-0.,0.,-1.));
#941=VECTOR('',#940,2.);
#942=LINE('',#939,#941);
#943=EDGE_CURVE('',#778,#370,#942,.T.);
#944=ORIENTED_EDGE('',*,*,#943,.T.);
#945=ORIENTED_EDGE('',*,*,#375,.F.);
#946=CARTESIAN_POINT('',(15.5,18.,-1.));
#947=DIRECTION('',(0.,-0.,1.));
#948=VECTOR('',#947,2.);
#949=LINE('',#946,#948);
#950=EDGE_CURVE('',#361,#787,#949,.T.);
#951=ORIENTED_EDGE('',*,*,#950,.T.);
#952=EDGE_LOOP('',(#938,#944,#945,#951));
#953=FACE_BOUND('',#952,.T.);
#954=ADVANCED_FACE('',(#953),#937,.F.);
#955=CARTESIAN_POINT('',(-15.5,-19.,-1.));
#956=DIRECTION('',(1.,0.,0.));
#957=DIRECTION('',(0.,-1.,-0.));
#958=AXIS2_PLACEMENT_3D('',#955,#956,#957);
#959=PLANE('',#958);
#960=ORIENTED_EDGE('',*,*,#280,.F.);
#961=CARTESIAN_POINT('',(-15.5,1.448927805,-1.));
#962=DIRECTION('',(0.,-0.,1.));
#963=VECTOR('',#962,2.);
#964=LINE('',#961,#963);
#965=EDGE_CURVE('',#266,#882,#964,.T.);
#966=ORIENTED_EDGE('',*,*,#965,.T.);
#967=ORIENTED_EDGE('',*,*,#887,.T.);
#968=CARTESIAN_POINT('',(-15.5,1.516488857,1.));
#969=DIRECTION('',(-0.,0.,-1.));
#970=VECTOR('',#969,2.);
#971=LINE('',#968,#970);
#972=EDGE_CURVE('',#873,#275,#971,.T.);
#973=ORIENTED_EDGE('',*,*,#972,.T.);
#974=EDGE_LOOP('',(#960,#966,#967,#973));
#975=FACE_BOUND('',#974,.T.);
#976=ADVANCED_FACE('',(#975),#959,.F.);
#977=CARTESIAN_POINT('',(-15.5,21.,-1.));
#978=DIRECTION('',(0.,-1.,-0.));
#979=DIRECTION('',(-1.,0.,0.));
#980=AXIS2_PLACEMENT_3D('',#977,#978,#979);
#981=PLANE('',#980);
#982=ORIENTED_EDGE('',*,*,#844,.T.);
#983=CARTESIAN_POINT('',(-11.859572064,21.,1.));
#984=DIRECTION('',(-0.,0.,-1.));
#985=VECTOR('',#984,2.);
#986=LINE('',#983,#985);
#987=EDGE_CURVE('',#830,#318,#986,.T.);
#988=ORIENTED_EDGE('',*,*,#987,.T.);
#989=ORIENTED_EDGE('',*,*,#323,.F.);
#990=CARTESIAN_POINT('',(-12.5,21.,-1.));
#991=DIRECTION('',(0.,-0.,1.));
#992=VECTOR('',#991,2.);
#993=LINE('',#990,#992);
#994=EDGE_CURVE('',#309,#839,#993,.T.);
#995=ORIENTED_EDGE('',*,*,#994,.T.);
#996=EDGE_LOOP('',(#982,#988,#989,#995));
#997=FACE_BOUND('',#996,.T.);
#998=ADVANCED_FACE('',(#997),#981,.F.);
#999=CARTESIAN_POINT('',(-11.,17.524340462,-65.667384751));
#1000=DIRECTION('',(0.,-0.,1.));
#1001=DIRECTION('',(0.,-1.,-0.));
#1002=AXIS2_PLACEMENT_3D('',#999,#1000,#1001);
#1003=CYLINDRICAL_SURFACE('',#1002,1.15);
#1004=CARTESIAN_POINT('',(-11.,16.374340462,1.));
#1005=DIRECTION('',(-0.,0.,-1.));
#1006=VECTOR('',#1005,2.);
#1007=LINE('',#1004,#1006);
#1008=EDGE_CURVE('',#688,#540,#1007,.T.);
#1009=ORIENTED_EDGE('',*,*,#1008,.F.);
#1010=ORIENTED_EDGE('',*,*,#694,.F.);
#1011=ORIENTED_EDGE('',*,*,#701,.F.);
#1012=ORIENTED_EDGE('',*,*,#1008,.T.);
#1013=ORIENTED_EDGE('',*,*,#548,.T.);
#1014=ORIENTED_EDGE('',*,*,#555,.T.);
#1015=EDGE_LOOP('',(#1009,#1010,#1011,#1012,#1013,#1014));
#1016=FACE_BOUND('',#1015,.T.);
#1017=ADVANCED_FACE('',(#1016),#1003,.F.);
#1018=CARTESIAN_POINT('',(-11.,2.524340462,-58.440496298));
#1019=DIRECTION('',(0.,-0.,1.));
#1020=DIRECTION('',(0.,-1.,-0.));
#1021=AXIS2_PLACEMENT_3D('',#1018,#1019,#1020);
#1022=CYLINDRICAL_SURFACE('',#1021,1.15);
#1023=CARTESIAN_POINT('',(-11.,1.374340462,1.));
#1024=DIRECTION('',(-0.,0.,-1.));
#1025=VECTOR('',#1024,2.);
#1026=LINE('',#1023,#1025);
#1027=EDGE_CURVE('',#668,#520,#1026,.T.);
#1028=ORIENTED_EDGE('',*,*,#1027,.F.);
#1029=ORIENTED_EDGE('',*,*,#674,.F.);
#1030=ORIENTED_EDGE('',*,*,#681,.F.);
#1031=ORIENTED_EDGE('',*,*,#1027,.T.);
#1032=ORIENTED_EDGE('',*,*,#528,.T.);
#1033=ORIENTED_EDGE('',*,*,#535,.T.);
#1034=EDGE_LOOP('',(#1028,#1029,#1030,#1031,#1032,#1033));
#1035=FACE_BOUND('',#1034,.T.);
#1036=ADVANCED_FACE('',(#1035),#1022,.F.);
#1037=CARTESIAN_POINT('',(11.,2.524340462,-61.576834049));
#1038=DIRECTION('',(0.,-0.,1.));
#1039=DIRECTION('',(0.,-1.,-0.));
#1040=AXIS2_PLACEMENT_3D('',#1037,#1038,#1039);
#1041=CYLINDRICAL_SURFACE('',#1040,1.15);
#1042=CARTESIAN_POINT('',(11.,1.374340462,1.));
#1043=DIRECTION('',(-0.,0.,-1.));
#1044=VECTOR('',#1043,2.);
#1045=LINE('',#1042,#1044);
#1046=EDGE_CURVE('',#648,#500,#1045,.T.);
#1047=ORIENTED_EDGE('',*,*,#1046,.F.);
#1048=ORIENTED_EDGE('',*,*,#654,.F.);
#1049=ORIENTED_EDGE('',*,*,#661,.F.);
#1050=ORIENTED_EDGE('',*,*,#1046,.T.);
#1051=ORIENTED_EDGE('',*,*,#508,.T.);
#1052=ORIENTED_EDGE('',*,*,#515,.T.);
#1053=EDGE_LOOP('',(#1047,#1048,#1049,#1050,#1051,#1052));
#1054=FACE_BOUND('',#1053,.T.);
#1055=ADVANCED_FACE('',(#1054),#1041,.F.);
#1056=CARTESIAN_POINT('',(11.,17.524340462,-80.780973885));
#1057=DIRECTION('',(0.,-0.,1.));
#1058=DIRECTION('',(0.,-1.,-0.));
#1059=AXIS2_PLACEMENT_3D('',#1056,#1057,#1058);
#1060=CYLINDRICAL_SURFACE('',#1059,1.15);
#1061=CARTESIAN_POINT('',(11.,16.374340462,1.));
#1062=DIRECTION('',(-0.,0.,-1.));
#1063=VECTOR('',#1062,2.);
#1064=LINE('',#1061,#1063);
#1065=EDGE_CURVE('',#628,#480,#1064,.T.);
#1066=ORIENTED_EDGE('',*,*,#1065,.F.);
#1067=ORIENTED_EDGE('',*,*,#634,.F.);
#1068=ORIENTED_EDGE('',*,*,#641,.F.);
#1069=ORIENTED_EDGE('',*,*,#1065,.T.);
#1070=ORIENTED_EDGE('',*,*,#488,.T.);
#1071=ORIENTED_EDGE('',*,*,#495,.T.);
#1072=EDGE_LOOP('',(#1066,#1067,#1068,#1069,#1070,#1071));
#1073=FACE_BOUND('',#1072,.T.);
#1074=ADVANCED_FACE('',(#1073),#1060,.F.);
#1075=CARTESIAN_POINT('',(-9.663379814,-16.510103547,-81.76452897));
#1076=DIRECTION('',(0.,-0.,1.));
#1077=DIRECTION('',(0.,-1.,-0.));
#1078=AXIS2_PLACEMENT_3D('',#1075,#1076,#1077);
#1079=CYLINDRICAL_SURFACE('',#1078,1.5);
#1080=CARTESIAN_POINT('',(-9.663379814,-18.010103547,1.));
#1081=DIRECTION('',(-0.,0.,-1.));
#1082=VECTOR('',#1081,2.);
#1083=LINE('',#1080,#1082);
#1084=EDGE_CURVE('',#608,#460,#1083,.T.);
#1085=ORIENTED_EDGE('',*,*,#1084,.F.);
#1086=ORIENTED_EDGE('',*,*,#614,.F.);
#1087=ORIENTED_EDGE('',*,*,#621,.F.);
#1088=ORIENTED_EDGE('',*,*,#1084,.T.);
#1089=ORIENTED_EDGE('',*,*,#468,.T.);
#1090=ORIENTED_EDGE('',*,*,#475,.T.);
#1091=EDGE_LOOP('',(#1085,#1086,#1087,#1088,#1089,#1090));
#1092=FACE_BOUND('',#1091,.T.);
#1093=ADVANCED_FACE('',(#1092),#1079,.F.);
#1094=CARTESIAN_POINT('',(9.636620186,-16.510103547,-68.5612902));
#1095=DIRECTION('',(0.,-0.,1.));
#1096=DIRECTION('',(0.,-1.,-0.));
#1097=AXIS2_PLACEMENT_3D('',#1094,#1095,#1096);
#1098=CYLINDRICAL_SURFACE('',#1097,1.5);
#1099=CARTESIAN_POINT('',(9.636620186,-18.010103547,1.));
#1100=DIRECTION('',(-0.,0.,-1.));
#1101=VECTOR('',#1100,2.);
#1102=LINE('',#1099,#1101);
#1103=EDGE_CURVE('',#588,#440,#1102,.T.);
#1104=ORIENTED_EDGE('',*,*,#1103,.F.);
#1105=ORIENTED_EDGE('',*,*,#594,.F.);
#1106=ORIENTED_EDGE('',*,*,#601,.F.);
#1107=ORIENTED_EDGE('',*,*,#1103,.T.);
#1108=ORIENTED_EDGE('',*,*,#448,.T.);
#1109=ORIENTED_EDGE('',*,*,#455,.T.);
#1110=EDGE_LOOP('',(#1104,#1105,#1106,#1107,#1108,#1109));
#1111=FACE_BOUND('',#1110,.T.);
#1112=ADVANCED_FACE('',(#1111),#1098,.F.);
#1113=CARTESIAN_POINT('',(-12.663640775,-1.051072195,-87.630200835));
#1114=DIRECTION('',(-1.,0.,0.));
#1115=DIRECTION('',(0.,1.,0.));
#1116=AXIS2_PLACEMENT_3D('',#1113,#1114,#1115);
#1117=PLANE('',#1116);
#1118=ORIENTED_EDGE('',*,*,#254,.F.);
#1119=CARTESIAN_POINT('',(-12.663640775,-16.,-1.));
#1120=DIRECTION('',(0.,-0.,1.));
#1121=VECTOR('',#1120,2.);
#1122=LINE('',#1119,#1121);
#1123=EDGE_CURVE('',#240,#908,#1122,.T.);
#1124=ORIENTED_EDGE('',*,*,#1123,.T.);
#1125=ORIENTED_EDGE('',*,*,#913,.T.);
#1126=CARTESIAN_POINT('',(-12.663640775,-3.363038303,1.));
#1127=DIRECTION('',(-0.,0.,-1.));
#1128=VECTOR('',#1127,2.);
#1129=LINE('',#1126,#1128);
#1130=EDGE_CURVE('',#899,#249,#1129,.T.);
#1131=ORIENTED_EDGE('',*,*,#1130,.T.);
#1132=EDGE_LOOP('',(#1118,#1124,#1125,#1131));
#1133=FACE_BOUND('',#1132,.T.);
#1134=ADVANCED_FACE('',(#1133),#1117,.T.);
#1135=CARTESIAN_POINT('',(12.565148063,-19.,-69.278040594));
#1136=DIRECTION('',(0.999999342,0.001147587,0.));
#1137=DIRECTION('',(0.001147587,-0.999999342,-0.));
#1138=AXIS2_PLACEMENT_3D('',#1135,#1136,#1137);
#1139=PLANE('',#1138);
#1140=ORIENTED_EDGE('',*,*,#739,.T.);
#1141=CARTESIAN_POINT('',(12.56170135,-15.99655724,1.));
#1142=DIRECTION('',(-0.,0.,-1.));
#1143=VECTOR('',#1142,2.);
#1144=LINE('',#1141,#1143);
#1145=EDGE_CURVE('',#725,#423,#1144,.T.);
#1146=ORIENTED_EDGE('',*,*,#1145,.T.);
#1147=ORIENTED_EDGE('',*,*,#428,.F.);
#1148=CARTESIAN_POINT('',(12.547111456,-3.283022869,-1.));
#1149=DIRECTION('',(-0.,-0.,1.));
#1150=VECTOR('',#1149,2.);
#1151=LINE('',#1148,#1150);
#1152=EDGE_CURVE('',#414,#734,#1151,.T.);
#1153=ORIENTED_EDGE('',*,*,#1152,.T.);
#1154=EDGE_LOOP('',(#1140,#1146,#1147,#1153));
#1155=FACE_BOUND('',#1154,.T.);
#1156=ADVANCED_FACE('',(#1155),#1139,.T.);
#1157=CARTESIAN_POINT('',(-0.099923906,-22.480890359,-99.027387801));
#1158=DIRECTION('',(0.,-0.,1.));
#1159=DIRECTION('',(0.,-1.,-0.));
#1160=AXIS2_PLACEMENT_3D('',#1157,#1158,#1159);
#1161=CYLINDRICAL_SURFACE('',#1160,8.370150852);
#1162=ORIENTED_EDGE('',*,*,#229,.T.);
#1163=CARTESIAN_POINT('',(6.777414949,-17.709974769,-1.));
#1164=DIRECTION('',(0.,-0.,1.));
#1165=VECTOR('',#1164,2.);
#1166=LINE('',#1163,#1165);
#1167=EDGE_CURVE('',#214,#708,#1166,.T.);
#1168=ORIENTED_EDGE('',*,*,#1167,.T.);
#1169=ORIENTED_EDGE('',*,*,#714,.F.);
#1170=CARTESIAN_POINT('',(-6.97726276,-17.709974769,1.));
#1171=DIRECTION('',(-0.,0.,-1.));
#1172=VECTOR('',#1171,2.);
#1173=LINE('',#1170,#1172);
#1174=EDGE_CURVE('',#706,#223,#1173,.T.);
#1175=ORIENTED_EDGE('',*,*,#1174,.T.);
#1176=EDGE_LOOP('',(#1162,#1168,#1169,#1175));
#1177=FACE_BOUND('',#1176,.T.);
#1178=ADVANCED_FACE('',(#1177),#1161,.F.);
#1179=CARTESIAN_POINT('',(-0.04143001,21.634056316,-90.313149668));
#1180=DIRECTION('',(0.,-0.,1.));
#1181=DIRECTION('',(0.,-1.,-0.));
#1182=AXIS2_PLACEMENT_3D('',#1179,#1180,#1181);
#1183=CYLINDRICAL_SURFACE('',#1182,6.636099551);
#1184=CARTESIAN_POINT('',(-0.04143001,14.997956765,1.));
#1185=DIRECTION('',(-0.,0.,-1.));
#1186=VECTOR('',#1185,2.);
#1187=LINE('',#1184,#1186);
#1188=EDGE_CURVE('',#812,#335,#1187,.T.);
#1189=ORIENTED_EDGE('',*,*,#1188,.F.);
#1190=ORIENTED_EDGE('',*,*,#818,.F.);
#1191=CARTESIAN_POINT('',(5.316989896,17.719320901,1.));
#1192=DIRECTION('',(-0.,0.,-1.));
#1193=VECTOR('',#1192,2.);
#1194=LINE('',#1191,#1193);
#1195=EDGE_CURVE('',#803,#344,#1194,.T.);
#1196=ORIENTED_EDGE('',*,*,#1195,.T.);
#1197=ORIENTED_EDGE('',*,*,#350,.T.);
#1198=EDGE_LOOP('',(#1189,#1190,#1196,#1197));
#1199=FACE_BOUND('',#1198,.T.);
#1200=ADVANCED_FACE('',(#1199),#1183,.F.);
#1201=CARTESIAN_POINT('',(-17.51966289,9.741900642,-75.216103377));
#1202=DIRECTION('',(0.,-0.,1.));
#1203=DIRECTION('',(0.,-1.,-0.));
#1204=AXIS2_PLACEMENT_3D('',#1201,#1202,#1203);
#1205=CYLINDRICAL_SURFACE('',#1204,6.636099551);
#1206=ORIENTED_EDGE('',*,*,#298,.T.);
#1207=CARTESIAN_POINT('',(-14.062768067,4.077300441,-1.));
#1208=DIRECTION('',(0.,-0.,1.));
#1209=VECTOR('',#1208,2.);
#1210=LINE('',#1207,#1209);
#1211=EDGE_CURVE('',#283,#864,#1210,.T.);
#1212=ORIENTED_EDGE('',*,*,#1211,.T.);
#1213=ORIENTED_EDGE('',*,*,#870,.F.);
#1214=CARTESIAN_POINT('',(-14.062768067,15.406500843,1.));
#1215=DIRECTION('',(-0.,0.,-1.));
#1216=VECTOR('',#1215,2.);
#1217=LINE('',#1214,#1216);
#1218=EDGE_CURVE('',#855,#292,#1217,.T.);
#1219=ORIENTED_EDGE('',*,*,#1218,.T.);
#1220=EDGE_LOOP('',(#1206,#1212,#1213,#1219));
#1221=FACE_BOUND('',#1220,.T.);
#1222=ADVANCED_FACE('',(#1221),#1205,.F.);
#1223=CARTESIAN_POINT('',(17.582798082,9.741900642,-92.08278997));
#1224=DIRECTION('',(0.,-0.,1.));
#1225=DIRECTION('',(0.,-1.,-0.));
#1226=AXIS2_PLACEMENT_3D('',#1223,#1224,#1225);
#1227=CYLINDRICAL_SURFACE('',#1226,6.636099551);
#1228=ORIENTED_EDGE('',*,*,#775,.F.);
#1229=CARTESIAN_POINT('',(14.082423901,4.104064368,1.));
#1230=DIRECTION('',(-0.,0.,-1.));
#1231=VECTOR('',#1230,2.);
#1232=LINE('',#1229,#1231);
#1233=EDGE_CURVE('',#760,#387,#1232,.T.);
#1234=ORIENTED_EDGE('',*,*,#1233,.T.);
#1235=ORIENTED_EDGE('',*,*,#393,.T.);
#1236=CARTESIAN_POINT('',(14.082423901,15.379736915,-1.));
#1237=DIRECTION('',(0.,-0.,1.));
#1238=VECTOR('',#1237,2.);
#1239=LINE('',#1236,#1238);
#1240=EDGE_CURVE('',#378,#769,#1239,.T.);
#1241=ORIENTED_EDGE('',*,*,#1240,.T.);
#1242=EDGE_LOOP('',(#1228,#1234,#1235,#1241));
#1243=FACE_BOUND('',#1242,.T.);
#1244=ADVANCED_FACE('',(#1243),#1227,.F.);
#1245=CARTESIAN_POINT('',(-12.5,18.,-1.));
#1246=DIRECTION('',(0.,-0.,1.));
#1247=DIRECTION('',(0.,-1.,-0.));
#1248=AXIS2_PLACEMENT_3D('',#1245,#1246,#1247);
#1249=CYLINDRICAL_SURFACE('',#1248,3.);
#1250=ORIENTED_EDGE('',*,*,#315,.F.);
#1251=ORIENTED_EDGE('',*,*,#62,.F.);
#1252=ORIENTED_EDGE('',*,*,#851,.F.);
#1253=ORIENTED_EDGE('',*,*,#994,.F.);
#1254=EDGE_LOOP('',(#1250,#1251,#1252,#1253));
#1255=FACE_BOUND('',#1254,.T.);
#1256=ADVANCED_FACE('',(#1255),#1249,.T.);
#1257=CARTESIAN_POINT('',(-12.5,17.967312426,-75.216103377));
#1258=DIRECTION('',(0.,-0.,1.));
#1259=DIRECTION('',(0.,-1.,-0.));
#1260=AXIS2_PLACEMENT_3D('',#1257,#1258,#1259);
#1261=CYLINDRICAL_SURFACE('',#1260,3.);
#1262=ORIENTED_EDGE('',*,*,#305,.F.);
#1263=ORIENTED_EDGE('',*,*,#1218,.F.);
#1264=ORIENTED_EDGE('',*,*,#861,.F.);
#1265=ORIENTED_EDGE('',*,*,#48,.F.);
#1266=EDGE_LOOP('',(#1262,#1263,#1264,#1265));
#1267=FACE_BOUND('',#1266,.T.);
#1268=ADVANCED_FACE('',(#1267),#1261,.T.);
#1269=CARTESIAN_POINT('',(-11.859572064,13.,-90.313149668));
#1270=DIRECTION('',(0.,-0.,1.));
#1271=DIRECTION('',(0.,-1.,-0.));
#1272=AXIS2_PLACEMENT_3D('',#1269,#1270,#1271);
#1273=CYLINDRICAL_SURFACE('',#1272,8.);
#1274=ORIENTED_EDGE('',*,*,#836,.F.);
#1275=CARTESIAN_POINT('',(-5.399849916,17.719320901,-1.));
#1276=DIRECTION('',(0.,-0.,1.));
#1277=VECTOR('',#1276,2.);
#1278=LINE('',#1275,#1277);
#1279=EDGE_CURVE('',#326,#821,#1278,.T.);
#1280=ORIENTED_EDGE('',*,*,#1279,.F.);
#1281=ORIENTED_EDGE('',*,*,#332,.F.);
#1282=ORIENTED_EDGE('',*,*,#987,.F.);
#1283=EDGE_LOOP('',(#1274,#1280,#1281,#1282));
#1284=FACE_BOUND('',#1283,.T.);
#1285=ADVANCED_FACE('',(#1284),#1273,.T.);
#1286=CARTESIAN_POINT('',(12.5,18.,-1.));
#1287=DIRECTION('',(0.,-0.,1.));
#1288=DIRECTION('',(0.,-1.,-0.));
#1289=AXIS2_PLACEMENT_3D('',#1286,#1287,#1288);
#1290=CYLINDRICAL_SURFACE('',#1289,3.);
#1291=ORIENTED_EDGE('',*,*,#367,.F.);
#1292=ORIENTED_EDGE('',*,*,#102,.F.);
#1293=ORIENTED_EDGE('',*,*,#799,.F.);
#1294=ORIENTED_EDGE('',*,*,#950,.F.);
#1295=EDGE_LOOP('',(#1291,#1292,#1293,#1294));
#1296=FACE_BOUND('',#1295,.T.);
#1297=ADVANCED_FACE('',(#1296),#1290,.T.);
#1298=CARTESIAN_POINT('',(12.5,17.928449256,-92.08278997));
#1299=DIRECTION('',(0.,-0.,1.));
#1300=DIRECTION('',(0.,-1.,-0.));
#1301=AXIS2_PLACEMENT_3D('',#1298,#1299,#1300);
#1302=CYLINDRICAL_SURFACE('',#1301,3.);
#1303=ORIENTED_EDGE('',*,*,#784,.F.);
#1304=ORIENTED_EDGE('',*,*,#1240,.F.);
#1305=ORIENTED_EDGE('',*,*,#384,.F.);
#1306=ORIENTED_EDGE('',*,*,#943,.F.);
#1307=EDGE_LOOP('',(#1303,#1304,#1305,#1306));
#1308=FACE_BOUND('',#1307,.T.);
#1309=ADVANCED_FACE('',(#1308),#1302,.T.);
#1310=CARTESIAN_POINT('',(11.776712044,13.,-90.313149668));
#1311=DIRECTION('',(0.,-0.,1.));
#1312=DIRECTION('',(0.,-1.,-0.));
#1313=AXIS2_PLACEMENT_3D('',#1310,#1311,#1312);
#1314=CYLINDRICAL_SURFACE('',#1313,8.);
#1315=ORIENTED_EDGE('',*,*,#357,.F.);
#1316=ORIENTED_EDGE('',*,*,#1195,.F.);
#1317=ORIENTED_EDGE('',*,*,#809,.F.);
#1318=ORIENTED_EDGE('',*,*,#88,.F.);
#1319=EDGE_LOOP('',(#1315,#1316,#1317,#1318));
#1320=FACE_BOUND('',#1319,.T.);
#1321=ADVANCED_FACE('',(#1320),#1314,.T.);
#1322=CARTESIAN_POINT('',(-12.5,1.516488857,-75.216103377));
#1323=DIRECTION('',(0.,-0.,1.));
#1324=DIRECTION('',(0.,-1.,-0.));
#1325=AXIS2_PLACEMENT_3D('',#1322,#1323,#1324);
#1326=CYLINDRICAL_SURFACE('',#1325,3.);
#1327=ORIENTED_EDGE('',*,*,#879,.F.);
#1328=ORIENTED_EDGE('',*,*,#1211,.F.);
#1329=ORIENTED_EDGE('',*,*,#289,.F.);
#1330=ORIENTED_EDGE('',*,*,#972,.F.);
#1331=EDGE_LOOP('',(#1327,#1328,#1329,#1330));
#1332=FACE_BOUND('',#1331,.T.);
#1333=ADVANCED_FACE('',(#1332),#1326,.T.);
#1334=CARTESIAN_POINT('',(-13.,1.448927805,-1.));
#1335=DIRECTION('',(0.,0.,-1.));
#1336=DIRECTION('',(0.,1.,0.));
#1337=AXIS2_PLACEMENT_3D('',#1334,#1335,#1336);
#1338=CYLINDRICAL_SURFACE('',#1337,2.5);
#1339=ORIENTED_EDGE('',*,*,#272,.F.);
#1340=CARTESIAN_POINT('',(-14.210745807,-0.738329517,-1.));
#1341=DIRECTION('',(-0.,-0.,1.));
#1342=VECTOR('',#1341,2.);
#1343=LINE('',#1340,#1342);
#1344=EDGE_CURVE('',#257,#890,#1343,.T.);
#1345=ORIENTED_EDGE('',*,*,#1344,.T.);
#1346=ORIENTED_EDGE('',*,*,#896,.F.);
#1347=ORIENTED_EDGE('',*,*,#965,.F.);
#1348=EDGE_LOOP('',(#1339,#1345,#1346,#1347));
#1349=FACE_BOUND('',#1348,.T.);
#1350=ADVANCED_FACE('',(#1349),#1338,.T.);
#1351=CARTESIAN_POINT('',(12.5,1.555352027,-92.08278997));
#1352=DIRECTION('',(0.,-0.,1.));
#1353=DIRECTION('',(0.,-1.,-0.));
#1354=AXIS2_PLACEMENT_3D('',#1351,#1352,#1353);
#1355=CYLINDRICAL_SURFACE('',#1354,3.);
#1356=ORIENTED_EDGE('',*,*,#766,.F.);
#1357=CARTESIAN_POINT('',(15.490894449,1.788912286,1.));
#1358=DIRECTION('',(-0.,0.,-1.));
#1359=VECTOR('',#1358,2.);
#1360=LINE('',#1357,#1359);
#1361=EDGE_CURVE('',#751,#396,#1360,.T.);
#1362=ORIENTED_EDGE('',*,*,#1361,.T.);
#1363=ORIENTED_EDGE('',*,*,#402,.F.);
#1364=ORIENTED_EDGE('',*,*,#1233,.F.);
#1365=EDGE_LOOP('',(#1356,#1362,#1363,#1364));
#1366=FACE_BOUND('',#1365,.T.);
#1367=ADVANCED_FACE('',(#1366),#1355,.T.);
#1368=CARTESIAN_POINT('',(12.998482408,1.594278737,-92.08278997));
#1369=DIRECTION('',(0.,-0.,1.));
#1370=DIRECTION('',(0.,-1.,-0.));
#1371=AXIS2_PLACEMENT_3D('',#1368,#1369,#1370);
#1372=CYLINDRICAL_SURFACE('',#1371,2.5);
#1373=ORIENTED_EDGE('',*,*,#757,.F.);
#1374=CARTESIAN_POINT('',(14.156949259,-0.621111647,1.));
#1375=DIRECTION('',(-0.,0.,-1.));
#1376=VECTOR('',#1375,2.);
#1377=LINE('',#1374,#1376);
#1378=EDGE_CURVE('',#742,#405,#1377,.T.);
#1379=ORIENTED_EDGE('',*,*,#1378,.T.);
#1380=ORIENTED_EDGE('',*,*,#411,.F.);
#1381=ORIENTED_EDGE('',*,*,#1361,.F.);
#1382=EDGE_LOOP('',(#1373,#1379,#1380,#1381));
#1383=FACE_BOUND('',#1382,.T.);
#1384=ADVANCED_FACE('',(#1383),#1372,.T.);
#1385=CARTESIAN_POINT('',(-15.663640775,-3.363038303,-1.));
#1386=DIRECTION('',(0.,0.,-1.));
#1387=DIRECTION('',(0.,1.,0.));
#1388=AXIS2_PLACEMENT_3D('',#1385,#1386,#1387);
#1389=CYLINDRICAL_SURFACE('',#1388,3.);
#1390=ORIENTED_EDGE('',*,*,#263,.F.);
#1391=ORIENTED_EDGE('',*,*,#1130,.F.);
#1392=ORIENTED_EDGE('',*,*,#905,.F.);
#1393=ORIENTED_EDGE('',*,*,#1344,.F.);
#1394=EDGE_LOOP('',(#1390,#1391,#1392,#1393));
#1395=FACE_BOUND('',#1394,.T.);
#1396=ADVANCED_FACE('',(#1395),#1389,.F.);
#1397=CARTESIAN_POINT('',(15.547109481,-3.279580108,-92.08278997));
#1398=DIRECTION('',(0.,-0.,1.));
#1399=DIRECTION('',(0.,-1.,-0.));
#1400=AXIS2_PLACEMENT_3D('',#1397,#1398,#1399);
#1401=CYLINDRICAL_SURFACE('',#1400,3.);
#1402=ORIENTED_EDGE('',*,*,#420,.F.);
#1403=ORIENTED_EDGE('',*,*,#1378,.F.);
#1404=ORIENTED_EDGE('',*,*,#748,.F.);
#1405=ORIENTED_EDGE('',*,*,#1152,.F.);
#1406=EDGE_LOOP('',(#1402,#1403,#1404,#1405));
#1407=FACE_BOUND('',#1406,.T.);
#1408=ADVANCED_FACE('',(#1407),#1401,.F.);
#1409=CARTESIAN_POINT('',(-9.663640775,-16.,-87.630200835));
#1410=DIRECTION('',(0.,0.,-1.));
#1411=DIRECTION('',(0.,1.,0.));
#1412=AXIS2_PLACEMENT_3D('',#1409,#1410,#1411);
#1413=CYLINDRICAL_SURFACE('',#1412,3.);
#1414=ORIENTED_EDGE('',*,*,#246,.F.);
#1415=ORIENTED_EDGE('',*,*,#142,.F.);
#1416=ORIENTED_EDGE('',*,*,#920,.F.);
#1417=ORIENTED_EDGE('',*,*,#1123,.F.);
#1418=EDGE_LOOP('',(#1414,#1415,#1416,#1417));
#1419=FACE_BOUND('',#1418,.T.);
#1420=ADVANCED_FACE('',(#1419),#1413,.T.);
#1421=CARTESIAN_POINT('',(9.561703325,-16.,-1.));
#1422=DIRECTION('',(0.,0.,-1.));
#1423=DIRECTION('',(0.,1.,0.));
#1424=AXIS2_PLACEMENT_3D('',#1421,#1422,#1423);
#1425=CYLINDRICAL_SURFACE('',#1424,3.);
#1426=ORIENTED_EDGE('',*,*,#435,.F.);
#1427=ORIENTED_EDGE('',*,*,#1145,.F.);
#1428=ORIENTED_EDGE('',*,*,#731,.F.);
#1429=ORIENTED_EDGE('',*,*,#182,.F.);
#1430=EDGE_LOOP('',(#1426,#1427,#1428,#1429));
#1431=FACE_BOUND('',#1430,.T.);
#1432=ADVANCED_FACE('',(#1431),#1425,.T.);
#1433=CARTESIAN_POINT('',(-9.44221434,-16.,-99.027387801));
#1434=DIRECTION('',(0.,-0.,1.));
#1435=DIRECTION('',(0.,-1.,-0.));
#1436=AXIS2_PLACEMENT_3D('',#1433,#1434,#1435);
#1437=CYLINDRICAL_SURFACE('',#1436,3.);
#1438=ORIENTED_EDGE('',*,*,#236,.F.);
#1439=ORIENTED_EDGE('',*,*,#1174,.F.);
#1440=ORIENTED_EDGE('',*,*,#928,.F.);
#1441=ORIENTED_EDGE('',*,*,#128,.F.);
#1442=EDGE_LOOP('',(#1438,#1439,#1440,#1441));
#1443=FACE_BOUND('',#1442,.T.);
#1444=ADVANCED_FACE('',(#1443),#1437,.T.);
#1445=CARTESIAN_POINT('',(9.242366528,-16.,-99.027387801));
#1446=DIRECTION('',(0.,-0.,1.));
#1447=DIRECTION('',(0.,-1.,-0.));
#1448=AXIS2_PLACEMENT_3D('',#1445,#1446,#1447);
#1449=CYLINDRICAL_SURFACE('',#1448,3.);
#1450=ORIENTED_EDGE('',*,*,#721,.F.);
#1451=ORIENTED_EDGE('',*,*,#1167,.F.);
#1452=ORIENTED_EDGE('',*,*,#220,.F.);
#1453=ORIENTED_EDGE('',*,*,#168,.F.);
#1454=EDGE_LOOP('',(#1450,#1451,#1452,#1453));
#1455=FACE_BOUND('',#1454,.T.);
#1456=ADVANCED_FACE('',(#1455),#1449,.T.);
#1457=CARTESIAN_POINT('',(-0.005496104,1.829754187,-63.984086668));
#1458=DIRECTION('',(0.,-0.,1.));
#1459=DIRECTION('',(0.,-1.,-0.));
#1460=AXIS2_PLACEMENT_3D('',#1457,#1458,#1459);
#1461=CYLINDRICAL_SURFACE('',#1460,4.030492762);
#1462=CARTESIAN_POINT('',(-0.005496104,-2.200738575,1.));
#1463=DIRECTION('',(-0.,0.,-1.));
#1464=VECTOR('',#1463,2.);
#1465=LINE('',#1462,#1464);
#1466=EDGE_CURVE('',#568,#193,#1465,.T.);
#1467=ORIENTED_EDGE('',*,*,#1466,.F.);
#1468=ORIENTED_EDGE('',*,*,#574,.F.);
#1469=ORIENTED_EDGE('',*,*,#581,.F.);
#1470=ORIENTED_EDGE('',*,*,#1466,.T.);
#1471=ORIENTED_EDGE('',*,*,#201,.T.);
#1472=ORIENTED_EDGE('',*,*,#208,.T.);
#1473=EDGE_LOOP('',(#1467,#1468,#1469,#1470,#1471,#1472));
#1474=FACE_BOUND('',#1473,.T.);
#1475=ADVANCED_FACE('',(#1474),#1461,.F.);
#1476=CARTESIAN_POINT('',(-0.04143001,21.634056316,-90.313149668));
#1477=DIRECTION('',(0.,-0.,1.));
#1478=DIRECTION('',(0.,-1.,-0.));
#1479=AXIS2_PLACEMENT_3D('',#1476,#1477,#1478);
#1480=CYLINDRICAL_SURFACE('',#1479,6.636099551);
#1481=ORIENTED_EDGE('',*,*,#1188,.T.);
#1482=ORIENTED_EDGE('',*,*,#341,.T.);
#1483=ORIENTED_EDGE('',*,*,#1279,.T.);
#1484=ORIENTED_EDGE('',*,*,#827,.F.);
#1485=EDGE_LOOP('',(#1481,#1482,#1483,#1484));
#1486=FACE_BOUND('',#1485,.T.);
#1487=ADVANCED_FACE('',(#1486),#1480,.F.);
#1488=CLOSED_SHELL('',(#66,#106,#146,#186,#559,#932,#954,#976,#998,#1017,#1036,#1055,#1074,#1093,#1112,#1134,#1156,#1178,#1200,#1222,#1244,#1256,#1268,#1285,#1297,#1309,
#1321,#1333,#1350,#1367,#1384,#1396,#1408,#1420,#1432,#1444,#1456,#1475,#1487));
#1489=MANIFOLD_SOLID_BREP('Solid 46',#1488);
#26=STYLED_ITEM('',(),#1489);
#16=SHAPE_REPRESENTATION('root',(#15),#10);
#17=ADVANCED_BREP_SHAPE_REPRESENTATION('root',(#1489),#10);
#1497=SHAPE_REPRESENTATION_RELATIONSHIP('','',#16,#17);
#1498=APPLICATION_CONTEXT('configuration controlled 3D design of mechanical parts and assemblies');
#1499=APPLICATION_PROTOCOL_DEFINITION('international standard','configuration_control_3d_design_ed2_mim',2004,#1498);
#1500=PRODUCT_CONTEXT('',#1498,'mechanical');
#1501=PRODUCT_DEFINITION_CONTEXT('part definition',#1498,'design');
#24=PRODUCT('root','root','',(#1500));
#1502=PRODUCT_RELATED_PRODUCT_CATEGORY('part','',(#24));
#1503=PRODUCT_DEFINITION_FORMATION_WITH_SPECIFIED_SOURCE('','',#24,.NOT_KNOWN.);
#25=PRODUCT_DEFINITION('design','',#1503,#1501);
#23=PRODUCT_DEFINITION_SHAPE('','',#25);
#1504=SHAPE_DEFINITION_REPRESENTATION(#23,#16);
#11=DRAUGHTING_MODEL('',(),#10);
#1=MECHANICAL_DESIGN_GEOMETRIC_PRESENTATION_REPRESENTATION('',(#26),#10);
ENDSEC;
END-ISO-10303-21;
